<svg xmlns="http://www.w3.org/2000/svg" viewBox="0 0 512 512" style="height: 512px; width: 512px;"><g class="" transform="translate(0,0)" style=""><g><path d="M259.72 17.125C212.775 17.405 165.912 31.795 126.094 60.313C216.134 22.319 324.624 40.998 398.031 114.406C471.355 187.748 489.514 295.539 451.657 385.531C516.7 294.569 508.427 167.583 426.627 85.781C380.603 39.707 320.077 16.765 259.72 17.126Z" class="" fill="#000000" fill-opacity="1"></path><path d="M451.655 385.53C451.611 385.593 451.575 385.657 451.53 385.72L451.563 385.78C451.597 385.7 451.623 385.613 451.656 385.53Z" class="" fill="#000000" fill-opacity="0.01"></path><path d="M96.28 67.03C82.27 67.03 71.125 78.192 71.125 92.187C71.125 106.199 82.285 117.344 96.281 117.344C110.294 117.344 121.438 106.184 121.438 92.188C121.438 78.176 110.278 67.031 96.282 67.031Z" class="" fill="#000000" fill-opacity="1"></path><path d="M258.062 81.594C213.624 81.564 169.192 98.494 135.312 132.374C67.54 200.151 67.65 310.116 135.5 377.969C203.365 445.836 313.305 445.885 381.063 378.124C448.835 310.348 448.756 200.384 380.906 132.53C346.974 98.597 302.501 81.622 258.062 81.594Z" class="" fill="#ff0000" fill-opacity="0"></path><path d="M253.594 102.938L275.25 164.812C260.49 162.196 245.198 163.228 230.875 167.969L253.595 102.937Z" class="" fill="#ff0000" fill-opacity="0"></path><path d="M65.28 122.844C65.247 122.926 65.222 123.012 65.187 123.094C65.231 123.032 65.269 122.968 65.313 122.906L65.281 122.844Z" class="" fill="#ff0000" fill-opacity="0"></path><path d="M65.187 123.094C0.144 214.057 8.417 341.044 90.22 422.844C172.037 504.756 299.737 513.498 390.75 448.314C300.708 486.306 192.22 467.627 118.812 394.219C45.489 320.876 27.332 213.085 65.188 123.093Z" class="" fill="#000000" fill-opacity="1"></path><path d="M147.907 146.656L211.312 177.186C205.708 180.716 200.434 184.929 195.562 189.812L195.532 189.75C189.28 196 184.152 202.94 180.125 210.344L179.095 211.374L147.905 146.656Z" class="" fill="#ffffff" fill-opacity="0"></path><path d="M359.562 146.719L333.156 201.562C330.234 197.436 326.932 193.494 323.25 189.812C316.91 183.472 309.86 178.276 302.344 174.218L359.564 146.718Z" class="" fill="#ffffff" fill-opacity="0"></path><path d="M260.344 192.374C276.157 192.384 291.988 198.424 304.064 210.499C328.212 234.649 328.242 273.789 304.124 297.905C280.008 322.023 240.868 321.993 216.719 297.843C192.569 273.693 192.569 234.553 216.687 210.437C228.745 198.377 244.529 192.363 260.343 192.374Z" class="" fill="#ff0000" fill-opacity="0"></path><path d="M171.874 228.749L171.874 231.562C168.284 245.995 168.294 261.154 171.906 275.592L171.906 276.186L104.094 252.436L171.874 228.749Z" class="" fill="#ffffff" fill-opacity="0"></path><path d="M347.406 233.187L403.406 252.78L348.219 272.062C350.729 259.234 350.432 245.952 347.405 233.187Z" class="" fill="#ffffff" fill-opacity="0"></path><path d="M178.844 294.217C183.06 302.597 188.64 310.452 195.624 317.437C199.906 321.717 204.539 325.465 209.406 328.717L148.062 358.217L178.844 294.217Z" class="" fill="#ffffff" fill-opacity="0"></path><path d="M334.188 305.53L359.688 358.438L305.25 332.218C311.9 328.403 318.147 323.662 323.813 318C327.713 314.1 331.163 309.927 334.188 305.53Z" class="" fill="#cc0606" fill-opacity="0"></path><path d="M232.03 339.657C245.82 344.099 260.467 345.222 274.656 342.97L253.936 402.25L232.031 339.656Z" class="" fill="#ff0000" fill-opacity="0"></path><path d="M427.094 398.532C413.082 398.532 401.938 409.694 401.938 423.69C401.938 437.7 413.098 448.846 427.094 448.846C441.106 448.846 452.219 437.686 452.219 423.69C452.219 409.678 441.089 398.533 427.093 398.533Z" class="selected" fill="#000000" fill-opacity="1"></path></g></g><g class="" transform="translate(133,129)" style=""><g><circle cx="128" cy="128" r="128" fill="#000" fill-opacity="1"></circle><circle stroke="#dcdcdc" stroke-opacity="1" fill="#000" fill-opacity="1" stroke-width="18" cx="128" cy="128" r="101"></circle><path fill="#dcdcdc" fill-opacity="1" d="M119 64v55H64v18h55v55h18v-55h55v-18h-55V64h-18z"></path></g></g></svg>