<svg width="512" height="512" viewBox="0 0 512 512" fill="none" xmlns="http://www.w3.org/2000/svg">
<path d="M259.72 17.125C212.775 17.405 165.912 31.795 126.094 60.313C216.134 22.319 324.624 40.998 398.031 114.406C471.355 187.748 489.514 295.539 451.657 385.531C516.7 294.569 508.427 167.583 426.627 85.781C380.603 39.707 320.077 16.764 259.72 17.125Z" fill="black"/>
<path d="M451.655 385.53C451.611 385.593 451.575 385.657 451.53 385.72L451.563 385.78C451.597 385.7 451.623 385.613 451.656 385.53H451.655Z" fill="black" fill-opacity="0.01"/>
<path d="M96.28 67.03C82.27 67.03 71.125 78.192 71.125 92.187C71.125 106.199 82.285 117.344 96.281 117.344C110.294 117.344 121.438 106.184 121.438 92.188C121.438 78.176 110.278 67.031 96.282 67.031L96.28 67.03Z" fill="black"/>
<path d="M65.187 123.094C0.144024 214.057 8.41703 341.044 90.22 422.844C172.037 504.756 299.737 513.498 390.75 448.314C300.708 486.306 192.22 467.627 118.812 394.219C45.489 320.876 27.332 213.085 65.188 123.093L65.187 123.094Z" fill="black"/>
<path d="M427.094 398.532C413.082 398.532 401.938 409.694 401.938 423.69C401.938 437.7 413.098 448.846 427.094 448.846C441.106 448.846 452.219 437.686 452.219 423.69C452.219 409.678 441.089 398.533 427.093 398.533L427.094 398.532Z" fill="black"/>
<path d="M261 434C358.754 434 438 354.754 438 257C438 159.246 358.754 80 261 80C163.246 80 84 159.246 84 257C84 354.754 163.246 434 261 434Z" fill="black"/>
<path d="M261 396.664C338.134 396.664 400.664 334.134 400.664 257C400.664 179.866 338.134 117.336 261 117.336C183.866 117.336 121.336 179.866 121.336 257C121.336 334.134 183.866 396.664 261 396.664Z" fill="black" stroke="#DCDCDC" stroke-width="18"/>
<path d="M248.555 168.5V244.555H172.5V269.445H248.555V345.5H273.445V269.445H349.5V244.555H273.445V168.5H248.555Z" fill="#DCDCDC"/>
</svg>
